<?xml version="1.0" encoding="UTF-8"?>
<!DOCTYPE svg PUBLIC "-//W3C//DTD SVG 1.1//EN" "http://www.w3.org/Graphics/SVG/1.1/DTD/svg11.dtd">
<!-- Creator: CorelDRAW 2021 (64 Bit) -->
<svg xmlns="http://www.w3.org/2000/svg" xml:space="preserve" width="101.545mm" height="58.6843mm" version="1.1" style="shape-rendering:geometricPrecision; text-rendering:geometricPrecision; image-rendering:optimizeQuality; fill-rule:evenodd; clip-rule:evenodd"
viewBox="0 0 10153.44 5867.81"
 xmlns:xlink="http://www.w3.org/1999/xlink"
 xmlns:xodm="http://www.corel.com/coreldraw/odm/2003">
 <defs>
  <style type="text/css">
   <![CDATA[
    .fil1 {fill:#FEFEFE}
    .fil3 {fill:#D68718}
    .fil2 {fill:#E32A3E}
    .fil0 {fill:#1A3E7D;fill-rule:nonzero}
   ]]>
  </style>
 </defs>
 <g id="Camada_x0020_1">
  <metadata id="CorelCorpID_0Corel-Layer"/>
  <g id="_2711912093456">
   <path class="fil0" d="M181.13 10.31l0 360.69 -51.52 0 0 -360.69 51.52 0zm1813.46 2379.84l-219.59 -1558.55c-10.72,-61.59 -48.2,-91.05 -104.44,-91.05l-21.43 0c-56.23,0 -93.73,32.14 -120.51,91.05l-516.84 1188.99 -535.58 -1188.99c-26.78,-58.91 -61.14,-91.05 -117.38,-91.05l-21.43 0c-58.91,0 -96.41,29.46 -104.44,91.05l-224.95 1558.55c-8.03,66.95 26.78,104.44 93.73,104.44l152.64 0c66.94,0 99.08,-37.49 107.11,-104.44l112.03 -947.98 399.01 966.73c26.79,64.26 66.95,99.08 128.55,99.08l21.42 0c58.91,0 99.09,-34.82 128.55,-99.08l396.33 -966.73 115.15 947.98c8.04,66.95 37.5,104.44 104.44,104.44l133.9 0c66.95,0 104.44,-37.49 93.73,-104.44zm-1985.21 2743.7c0,-13.38 4.81,-24.89 14.45,-34.53 9.64,-9.64 21.15,-14.45 34.54,-14.45 8.03,0 16.06,2.14 24.09,6.42 8.03,4.28 15.79,11.78 23.29,22.49l296.31 407.13 0 -429.61 80.3 0 0 519.56c0,13.38 -4.82,24.89 -14.45,34.53 -9.64,9.64 -21.15,14.45 -34.54,14.45 -8.56,0 -16.73,-2.14 -24.49,-6.42 -7.77,-4.28 -15.39,-11.78 -22.89,-22.49l-296.31 -407.13 0 429.61 -80.3 0 0 -519.56zm886.53 286.68c-3.75,-16.06 -9.64,-31.05 -17.67,-44.97 -8.03,-13.92 -17.67,-26.1 -28.91,-36.54 -11.24,-10.44 -24.09,-18.61 -38.55,-24.5 -14.45,-5.89 -29.71,-8.83 -45.77,-8.83 -17.14,0 -33.33,2.94 -48.58,8.83 -15.26,5.89 -28.91,14.06 -40.96,24.5 -12.05,10.44 -22.22,22.62 -30.52,36.54 -8.3,13.92 -14.32,28.91 -18.07,44.97l269.01 0zm-270.61 61.83c3.21,16.6 8.96,32.26 17.26,46.98 8.3,14.72 18.61,27.57 30.92,38.55 12.32,10.98 26.1,19.54 41.36,25.7 15.26,6.16 31.72,9.23 49.38,9.23 23.56,0 45.11,-5.75 64.64,-17.26 19.54,-11.51 36.28,-26.91 50.19,-46.18l64.23 36.94c-20.34,28.91 -46.31,51.93 -77.89,69.06 -31.59,17.13 -65.84,25.7 -102.78,25.7 -29.99,0 -58.08,-5.62 -84.32,-16.87 -26.23,-11.24 -49.11,-26.77 -68.65,-46.58 -19.55,-19.81 -34.94,-42.83 -46.18,-69.05 -11.25,-26.24 -16.87,-54.34 -16.87,-84.32 0,-29.98 5.62,-58.08 16.87,-84.31 11.24,-26.24 26.63,-49.25 46.18,-69.06 19.54,-19.81 42.43,-35.34 68.65,-46.58 26.24,-11.24 54.07,-16.87 83.51,-16.87 29.45,0 57.15,5.63 83.11,16.87 25.97,11.24 48.72,26.5 68.26,45.78 19.54,19.27 34.93,41.76 46.18,67.45 11.24,25.7 16.86,52.72 16.86,81.1 0,9.64 -3.61,17.67 -10.84,24.09 -7.23,6.43 -16.2,9.64 -26.91,9.64l-313.17 0zm479.39 3.21c0,17.67 2.68,33.46 8.04,47.38 5.35,13.93 12.71,25.7 22.08,35.34 9.37,9.64 20.35,17 32.93,22.09 12.58,5.08 26.1,7.63 40.55,7.63 15.53,0 29.99,-2.95 43.37,-8.84 13.39,-5.89 25.03,-13.92 34.94,-24.09 9.9,-10.17 17.66,-22.09 23.29,-35.74 5.62,-13.65 8.43,-28.24 8.43,-43.77l0 -233.68 76.28 0 0 401.51 -76.28 0 0 -48.18c-16.06,18.74 -34.27,33.6 -54.6,44.58 -20.35,10.97 -43.37,16.46 -69.06,16.46 -22.49,0 -43.77,-4.28 -63.84,-12.85 -20.07,-8.57 -37.74,-20.48 -52.99,-35.74 -15.26,-15.26 -27.31,-33.59 -36.14,-55 -8.83,-21.42 -13.25,-45.24 -13.25,-71.47l0 -239.29 76.28 0 0 233.68zm562.11 -178.27c-17.67,0 -34,2.95 -48.98,8.84 -14.99,5.89 -27.97,13.92 -38.95,24.09 -10.97,10.17 -19.67,22.09 -26.1,35.74 -6.42,13.65 -9.64,28.24 -9.64,43.77l0 233.68 -76.28 0 0 -401.51 76.28 0 0 48.18c16.07,-18.74 34.27,-33.6 54.6,-44.58 20.35,-10.97 43.37,-16.46 69.06,-16.46l0 68.25zm16.86 146.95c0,-29.98 5.76,-58.08 17.27,-84.31 11.51,-26.24 27.3,-49.25 47.38,-69.06 20.08,-19.81 43.5,-35.34 70.26,-46.58 26.77,-11.24 55.41,-16.87 85.92,-16.87 30.52,0 59.16,5.63 85.93,16.87 26.77,11.24 50.18,26.77 70.26,46.58 20.07,19.81 35.87,42.83 47.38,69.06 11.51,26.23 17.27,54.33 17.27,84.31 0,29.98 -5.76,58.08 -17.27,84.32 -11.51,26.23 -27.31,49.24 -47.38,69.05 -20.08,19.81 -43.5,35.34 -70.26,46.58 -26.77,11.25 -55.41,16.87 -85.93,16.87 -30.51,0 -59.15,-5.62 -85.92,-16.87 -26.77,-11.24 -50.18,-26.77 -70.26,-46.58 -20.08,-19.81 -35.87,-42.83 -47.38,-69.05 -11.51,-26.24 -17.27,-54.34 -17.27,-84.32zm76.29 -0.8c0,19.81 3.74,38.81 11.24,57.01 7.5,18.2 17.8,34.13 30.92,47.77 13.12,13.66 28.64,24.5 46.58,32.53 17.93,8.03 37.08,12.04 57.41,12.04 19.81,0 38.42,-4.01 55.81,-12.04 17.4,-8.03 32.52,-18.87 45.37,-32.53 12.85,-13.65 23.02,-29.58 30.52,-47.77 7.49,-18.21 11.24,-37.21 11.24,-57.01 0,-19.81 -3.75,-38.55 -11.24,-56.21 -7.5,-17.67 -17.67,-33.33 -30.52,-46.98 -12.85,-13.65 -27.97,-24.49 -45.37,-32.53 -17.4,-8.03 -36.01,-12.04 -55.81,-12.04 -20.34,0 -39.49,4.01 -57.41,12.04 -17.94,8.04 -33.46,18.88 -46.58,32.53 -13.12,13.65 -23.42,29.31 -30.92,46.98 -7.5,17.67 -11.24,36.41 -11.24,56.21zm766.88 0c0,-19.81 -3.62,-38.55 -10.84,-56.21 -7.23,-17.67 -17,-33.33 -29.32,-46.98 -12.31,-13.65 -26.9,-24.49 -43.77,-32.53 -16.86,-8.03 -34.93,-12.04 -54.2,-12.04 -18.2,0 -35.6,4.01 -52.19,12.04 -16.59,8.04 -30.92,18.88 -42.96,32.53 -12.05,13.65 -21.69,29.31 -28.91,46.98 -7.23,17.67 -10.85,36.41 -10.85,56.21 0,19.81 3.62,38.81 10.85,57.01 7.22,18.2 16.86,34.13 28.91,47.77 12.04,13.66 26.37,24.5 42.96,32.53 16.6,8.03 34,12.04 52.19,12.04 19.28,0 37.35,-4.01 54.2,-12.04 16.87,-8.03 31.46,-18.87 43.77,-32.53 12.32,-13.65 22.09,-29.58 29.32,-47.77 7.22,-18.21 10.84,-37.21 10.84,-57.01zm76.28 0.8c0,29.98 -5.35,58.08 -16.06,84.32 -10.71,26.23 -25.3,49.24 -43.77,69.05 -18.47,19.81 -40.15,35.34 -65.04,46.58 -24.9,11.25 -51.52,16.87 -79.9,16.87 -28.37,0 -54.87,-5.62 -79.49,-16.87 -24.63,-11.24 -46.32,-26.77 -65.05,-46.58l0 207.18 -76.28 0 0 -562.91 76.28 0 0 48.98c18.74,-19.81 40.43,-35.34 65.05,-46.58 24.62,-11.24 51.12,-16.87 79.49,-16.87 28.38,0 55,5.63 79.9,16.87 24.9,11.24 46.58,26.77 65.04,46.58 18.47,19.81 33.06,42.83 43.77,69.06 10.71,26.23 16.06,54.33 16.06,84.31zm35.33 -102.79c0,-21.41 4.56,-39.35 13.66,-53.79 9.1,-14.46 20.61,-26.1 34.53,-34.94 13.92,-8.83 29.31,-15.26 46.18,-19.27 16.86,-4.02 33.06,-6.03 48.58,-6.03 32.12,0 59.82,6.83 83.11,20.48 23.29,13.66 43.23,30.65 59.82,50.99l-57.82 38.55c-10.17,-11.78 -21.95,-21.68 -35.33,-29.72 -13.39,-8.03 -29.72,-12.04 -48.98,-12.04 -8.03,0 -16.06,0.8 -24.09,2.41 -8.03,1.6 -15.26,4.28 -21.69,8.03 -6.42,3.75 -11.64,8.56 -15.66,14.45 -4.01,5.89 -6.02,13.12 -6.02,21.69 0,15.52 7.49,28.11 22.49,37.74 14.99,9.64 39.35,20.35 73.07,32.13 9.64,3.21 21.15,7.63 34.53,13.25 13.39,5.62 26.24,13.12 38.55,22.49 12.31,9.36 22.75,21.41 31.32,36.13 8.57,14.73 12.85,33.07 12.85,55.01 0,22.48 -4.55,41.36 -13.65,56.61 -9.1,15.25 -20.88,27.7 -35.34,37.34 -14.45,9.64 -30.25,16.46 -47.38,20.48 -17.13,4.01 -33.73,6.02 -49.78,6.02 -34.27,0 -63.84,-7.49 -88.74,-22.48 -24.89,-15 -46.71,-33.74 -65.44,-56.21l60.22 -44.98c3.22,4.82 7.77,10.44 13.66,16.87 5.89,6.42 12.85,12.45 20.88,18.07 8.03,5.62 17.26,10.44 27.7,14.46 10.44,4.01 21.55,6.02 33.33,6.02 6.96,0 14.46,-0.8 22.49,-2.41 8.03,-1.61 15.39,-4.42 22.08,-8.43 6.7,-4.02 12.32,-9.37 16.87,-16.07 4.55,-6.69 6.83,-15.12 6.83,-25.29 0,-8.57 -1.88,-16.2 -5.63,-22.89 -3.74,-6.69 -9.77,-13.12 -18.07,-19.28 -8.29,-6.15 -19.4,-12.31 -33.32,-18.47 -13.92,-6.15 -31.06,-12.98 -51.39,-20.48 -8.03,-3.21 -18.07,-7.36 -30.12,-12.44 -12.05,-5.09 -23.56,-12.05 -34.53,-20.88 -10.98,-8.84 -20.35,-19.95 -28.11,-33.33 -7.76,-13.39 -11.65,-29.99 -11.65,-49.79zm341.28 -218.42c0,-13.38 4.68,-24.76 14.05,-34.13 9.37,-9.37 20.75,-14.05 34.13,-14.05 13.39,0 24.77,4.68 34.14,14.05 9.37,9.37 14.05,20.75 14.05,34.13 0,13.39 -4.68,24.76 -14.05,34.13 -9.37,9.37 -20.75,14.06 -34.14,14.06 -13.38,0 -24.76,-4.69 -34.13,-14.06 -9.37,-9.37 -14.05,-20.74 -14.05,-34.13zm10.44 118.85l76.28 0 0 401.51 -76.28 0 0 -401.51zm210.39 201.56c0,19.81 3.62,38.81 10.84,57.01 7.23,18.2 17.27,34 30.12,47.38 12.85,13.39 27.84,24.09 44.97,32.13 17.14,8.03 35.34,12.04 54.6,12.04 20.35,0 39.09,-4.28 56.21,-12.85 17.13,-8.56 32.66,-19.81 46.58,-33.73l55.41 44.98c-20.35,21.95 -44.04,39.08 -71.07,51.38 -27.04,12.32 -56.34,18.48 -87.93,18.48 -29.98,0 -58.08,-5.63 -84.31,-16.87 -26.24,-11.24 -49.12,-26.77 -68.66,-46.58 -19.54,-19.81 -34.93,-42.83 -46.18,-69.06 -11.24,-26.23 -16.86,-54.33 -16.86,-84.31 0,-29.98 5.62,-57.95 16.86,-83.92 11.25,-25.96 26.64,-48.84 46.18,-68.65 19.54,-19.81 42.43,-35.34 68.66,-46.58 26.23,-11.24 54.33,-16.87 84.31,-16.87 31.59,0 60.89,6.16 87.93,18.48 27.04,12.31 50.72,29.44 71.07,51.38l-55.41 44.98c-13.92,-13.92 -29.45,-25.17 -46.58,-33.73 -17.13,-8.57 -35.87,-12.85 -56.21,-12.85 -19.27,0 -37.47,4.01 -54.6,12.04 -17.13,8.04 -32.12,18.74 -44.97,32.13 -12.85,13.38 -22.89,29.04 -30.12,46.98 -7.22,17.94 -10.84,36.81 -10.84,56.61zm322.82 0.8c0,-29.98 5.76,-58.08 17.27,-84.31 11.51,-26.24 27.3,-49.25 47.38,-69.06 20.08,-19.81 43.5,-35.34 70.26,-46.58 26.77,-11.24 55.41,-16.87 85.92,-16.87 30.52,0 59.16,5.63 85.93,16.87 26.77,11.24 50.18,26.77 70.26,46.58 20.07,19.81 35.87,42.83 47.38,69.06 11.51,26.23 17.27,54.33 17.27,84.31 0,29.98 -5.76,58.08 -17.27,84.32 -11.51,26.23 -27.31,49.24 -47.38,69.05 -20.08,19.81 -43.5,35.34 -70.26,46.58 -26.77,11.25 -55.41,16.87 -85.93,16.87 -30.51,0 -59.15,-5.62 -85.92,-16.87 -26.77,-11.24 -50.18,-26.77 -70.26,-46.58 -20.08,-19.81 -35.87,-42.83 -47.38,-69.05 -11.51,-26.24 -17.27,-54.34 -17.27,-84.32zm76.29 -0.8c0,19.81 3.74,38.81 11.24,57.01 7.5,18.2 17.8,34.13 30.92,47.77 13.12,13.66 28.64,24.5 46.58,32.53 17.93,8.03 37.08,12.04 57.41,12.04 19.81,0 38.42,-4.01 55.81,-12.04 17.4,-8.03 32.52,-18.87 45.37,-32.53 12.85,-13.65 23.02,-29.58 30.52,-47.77 7.49,-18.21 11.24,-37.21 11.24,-57.01 0,-19.81 -3.75,-38.55 -11.24,-56.21 -7.5,-17.67 -17.67,-33.33 -30.52,-46.98 -12.85,-13.65 -27.97,-24.49 -45.37,-32.53 -17.4,-8.03 -36.01,-12.04 -55.81,-12.04 -20.34,0 -39.49,4.01 -57.41,12.04 -17.94,8.04 -33.46,18.88 -46.58,32.53 -13.12,13.65 -23.42,29.31 -30.92,46.98 -7.5,17.67 -11.24,36.41 -11.24,56.21zm493.85 199.95l-76.28 0 0 -562.11 76.28 0 0 562.11zm52.19 -199.15c0,-29.98 5.76,-58.08 17.27,-84.31 11.51,-26.24 27.3,-49.25 47.38,-69.06 20.08,-19.81 43.5,-35.34 70.26,-46.58 26.77,-11.24 55.41,-16.87 85.92,-16.87 30.52,0 59.16,5.63 85.93,16.87 26.77,11.24 50.18,26.77 70.26,46.58 20.07,19.81 35.87,42.83 47.38,69.06 11.51,26.23 17.27,54.33 17.27,84.31 0,29.98 -5.76,58.08 -17.27,84.32 -11.51,26.23 -27.31,49.24 -47.38,69.05 -20.08,19.81 -43.5,35.34 -70.26,46.58 -26.77,11.25 -55.41,16.87 -85.93,16.87 -30.51,0 -59.15,-5.62 -85.92,-16.87 -26.77,-11.24 -50.18,-26.77 -70.26,-46.58 -20.08,-19.81 -35.87,-42.83 -47.38,-69.05 -11.51,-26.24 -17.27,-54.34 -17.27,-84.32zm76.29 -0.8c0,19.81 3.74,38.81 11.24,57.01 7.5,18.2 17.8,34.13 30.92,47.77 13.12,13.66 28.64,24.5 46.58,32.53 17.93,8.03 37.08,12.04 57.41,12.04 19.81,0 38.42,-4.01 55.81,-12.04 17.4,-8.03 32.52,-18.87 45.37,-32.53 12.85,-13.65 23.02,-29.58 30.52,-47.77 7.49,-18.21 11.24,-37.21 11.24,-57.01 0,-19.81 -3.75,-38.55 -11.24,-56.21 -7.5,-17.67 -17.67,-33.33 -30.52,-46.98 -12.85,-13.65 -27.97,-24.49 -45.37,-32.53 -17.4,-8.03 -36.01,-12.04 -55.81,-12.04 -20.34,0 -39.49,4.01 -57.41,12.04 -17.94,8.04 -33.46,18.88 -46.58,32.53 -13.12,13.65 -23.42,29.31 -30.92,46.98 -7.5,17.67 -11.24,36.41 -11.24,56.21zm481.81 0c0,19.81 3.61,38.68 10.84,56.61 7.23,17.93 17,33.59 29.31,46.98 12.32,13.38 26.77,24.09 43.37,32.12 16.6,8.03 34.26,12.05 52.99,12.05 18.74,0 36.41,-4.02 53,-12.05 16.6,-8.03 31.05,-18.74 43.37,-32.12 12.31,-13.39 22.08,-29.05 29.31,-46.98 7.23,-17.94 10.84,-36.81 10.84,-56.61 0,-19.81 -3.61,-38.68 -10.84,-56.61 -7.23,-17.94 -17,-33.6 -29.31,-46.98 -12.32,-13.39 -26.77,-24.09 -43.37,-32.13 -16.6,-8.03 -34.27,-12.04 -53,-12.04 -18.74,0 -36.4,4.01 -52.99,12.04 -16.6,8.04 -31.05,18.74 -43.37,32.13 -12.31,13.38 -22.08,29.04 -29.31,46.98 -7.23,17.94 -10.84,36.81 -10.84,56.61zm-76.29 0c0,-29.98 5.22,-57.95 15.66,-83.92 10.44,-25.96 24.76,-48.84 42.97,-68.65 18.2,-19.81 39.48,-35.34 63.83,-46.58 24.37,-11.24 50.46,-16.87 78.3,-16.87 30.51,0 58.88,6.7 85.12,20.08 26.23,13.39 48.71,31.86 67.45,55.41l0 -61.03 76.28 0 0 397.49c0,38.02 -6.16,70.67 -18.47,97.97 -12.31,27.31 -28.38,49.92 -48.18,67.85 -19.81,17.94 -42.43,31.19 -67.85,39.76 -25.43,8.56 -51.25,12.85 -77.49,12.85 -33.73,0 -67.98,-6.69 -102.78,-20.08 -34.81,-13.38 -66.65,-32.93 -95.56,-58.62l44.17 -52.19c22.48,18.74 46.44,33.87 71.86,45.38 25.44,11.51 51.79,17.26 79.1,17.26 17.67,0 34.93,-2.81 51.79,-8.43 16.86,-5.62 31.72,-14.32 44.57,-26.1 12.85,-11.78 23.16,-26.9 30.92,-45.37 7.76,-18.48 11.65,-40.29 11.65,-65.45l0 -60.22c-18.74,23.56 -41.23,42.03 -67.45,55.4 -26.24,13.39 -54.61,20.08 -85.12,20.08 -27.84,0 -53.93,-5.62 -78.3,-16.86 -24.36,-11.25 -45.64,-26.77 -63.83,-46.58 -18.21,-19.81 -32.53,-42.83 -42.97,-69.06 -10.44,-26.23 -15.66,-54.06 -15.66,-83.51zm493.86 -320.41c0,-13.38 4.68,-24.76 14.05,-34.13 9.37,-9.37 20.75,-14.05 34.13,-14.05 13.39,0 24.77,4.68 34.14,14.05 9.37,9.37 14.05,20.75 14.05,34.13 0,13.39 -4.68,24.76 -14.05,34.13 -9.37,9.37 -20.75,14.06 -34.14,14.06 -13.38,0 -24.76,-4.69 -34.13,-14.06 -9.37,-9.37 -14.05,-20.74 -14.05,-34.13zm10.44 118.85l76.28 0 0 401.51 -76.28 0 0 -401.51zm206.38 201.56c0,19.81 3.61,38.81 10.84,57.01 7.23,18.2 17,34.13 29.31,47.77 12.32,13.66 26.91,24.5 43.77,32.53 16.87,8.03 34.94,12.04 54.2,12.04 18.74,0 36.27,-4.01 52.59,-12.04 16.33,-8.03 30.52,-18.87 42.57,-32.53 12.04,-13.65 21.68,-29.58 28.91,-47.77 7.23,-18.21 10.84,-37.21 10.84,-57.01 0,-19.81 -3.61,-38.55 -10.84,-56.21 -7.23,-17.67 -16.87,-33.33 -28.91,-46.98 -12.05,-13.65 -26.24,-24.49 -42.57,-32.53 -16.33,-8.03 -33.86,-12.04 -52.59,-12.04 -19.27,0 -37.34,4.01 -54.2,12.04 -16.86,8.04 -31.45,18.88 -43.77,32.53 -12.31,13.65 -22.08,29.31 -29.31,46.98 -7.23,17.67 -10.84,36.41 -10.84,56.21zm-76.29 0.8c0,-29.98 5.36,-58.08 16.06,-84.31 10.71,-26.24 25.3,-49.25 43.77,-69.06 18.47,-19.81 40.16,-35.34 65.04,-46.58 24.9,-11.24 51.53,-16.87 79.9,-16.87 28.38,0 54.87,5.63 79.5,16.87 24.63,11.24 46.31,26.77 65.04,46.58l0 -48.98 76.29 0 0 401.51 -76.29 0 0 -45.78c-18.74,19.81 -40.42,35.34 -65.04,46.58 -24.63,11.25 -51.12,16.87 -79.5,16.87 -28.37,0 -55,-5.62 -79.9,-16.87 -24.89,-11.24 -46.58,-26.77 -65.04,-46.58 -18.47,-19.81 -33.06,-42.83 -43.77,-69.05 -10.7,-26.24 -16.06,-54.34 -16.06,-84.32zm809.43 -7.23l207.18 0 -103.59 -253.75 -103.59 253.75zm57.01 -322.81c4.29,-10.18 9.77,-19.28 16.47,-27.31 6.69,-8.03 16.73,-12.04 30.11,-12.04 13.39,0 23.29,4.01 29.72,12.04 6.42,8.03 11.78,17.13 16.06,27.31l228.06 529.18 -86.73 0 -54.6 -134.11 -265.79 0 -54.6 134.11 -86.73 0 228.06 -529.18zm256.16 127.68l80.3 0 128.49 299.53 127.68 -299.53 81.1 0 -172.64 379.83c-3.75,8.03 -8.57,14.72 -14.46,20.07 -5.89,5.36 -13.12,8.03 -21.68,8.03 -9.1,0 -16.6,-2.67 -22.49,-8.03 -5.89,-5.35 -10.71,-12.04 -14.46,-20.07l-171.84 -379.83zm517.95 201.56c0,19.81 3.61,38.81 10.84,57.01 7.23,18.2 17,34.13 29.31,47.77 12.32,13.66 26.91,24.5 43.77,32.53 16.87,8.03 34.94,12.04 54.2,12.04 18.74,0 36.27,-4.01 52.59,-12.04 16.33,-8.03 30.52,-18.87 42.57,-32.53 12.04,-13.65 21.68,-29.58 28.91,-47.77 7.23,-18.21 10.84,-37.21 10.84,-57.01 0,-19.81 -3.61,-38.55 -10.84,-56.21 -7.23,-17.67 -16.87,-33.33 -28.91,-46.98 -12.05,-13.65 -26.24,-24.49 -42.57,-32.53 -16.33,-8.03 -33.86,-12.04 -52.59,-12.04 -19.27,0 -37.34,4.01 -54.2,12.04 -16.86,8.04 -31.45,18.88 -43.77,32.53 -12.31,13.65 -22.08,29.31 -29.31,46.98 -7.23,17.67 -10.84,36.41 -10.84,56.21zm-76.29 0.8c0,-29.98 5.36,-58.08 16.06,-84.31 10.71,-26.24 25.3,-49.25 43.77,-69.06 18.47,-19.81 40.16,-35.34 65.04,-46.58 24.9,-11.24 51.53,-16.87 79.9,-16.87 28.38,0 54.87,5.63 79.5,16.87 24.63,11.24 46.31,26.77 65.04,46.58l0 -48.98 76.29 0 0 401.51 -76.29 0 0 -45.78c-18.74,19.81 -40.42,35.34 -65.04,46.58 -24.63,11.25 -51.12,16.87 -79.5,16.87 -28.37,0 -55,-5.62 -79.9,-16.87 -24.89,-11.24 -46.58,-26.77 -65.04,-46.58 -18.47,-19.81 -33.06,-42.83 -43.77,-69.05 -10.7,-26.24 -16.06,-54.34 -16.06,-84.32zm787.76 -34.53c0,-17.67 -2.68,-33.46 -8.03,-47.39 -5.36,-13.92 -12.72,-25.69 -22.09,-35.33 -9.37,-9.64 -20.34,-17 -32.92,-22.09 -12.59,-5.08 -26.11,-7.63 -40.56,-7.63 -15.53,0 -29.98,2.95 -43.37,8.84 -13.38,5.89 -25.03,13.92 -34.93,24.09 -9.91,10.17 -17.67,22.09 -23.29,35.74 -5.63,13.65 -8.44,28.24 -8.44,43.77l0 233.68 -76.28 0 0 -401.51 76.28 0 0 48.18c16.07,-18.74 34.27,-33.6 54.6,-44.58 20.35,-10.97 43.37,-16.46 69.06,-16.46 22.49,0 43.77,4.28 63.84,12.85 20.08,8.57 37.74,20.48 52.99,35.74 15.26,15.26 27.31,33.59 36.14,55 8.84,21.42 13.25,45.24 13.25,71.47l0 239.29 -76.28 0 0 -233.68zm207.98 33.73c0,19.81 3.61,38.81 10.84,57.01 7.23,18.2 17.27,34 30.12,47.38 12.85,13.39 27.84,24.09 44.97,32.13 17.13,8.03 35.34,12.04 54.6,12.04 20.35,0 39.09,-4.28 56.21,-12.85 17.13,-8.56 32.66,-19.81 46.58,-33.73l55.4 44.98c-20.34,21.95 -44.03,39.08 -71.06,51.38 -27.04,12.32 -56.34,18.48 -87.93,18.48 -29.98,0 -58.08,-5.63 -84.32,-16.87 -26.23,-11.24 -49.11,-26.77 -68.65,-46.58 -19.54,-19.81 -34.94,-42.83 -46.18,-69.06 -11.24,-26.23 -16.87,-54.33 -16.87,-84.31 0,-29.98 5.63,-57.95 16.87,-83.92 11.24,-25.96 26.64,-48.84 46.18,-68.65 19.54,-19.81 42.43,-35.34 68.65,-46.58 26.24,-11.24 54.34,-16.87 84.32,-16.87 31.59,0 60.89,6.16 87.93,18.48 27.04,12.31 50.72,29.44 71.06,51.38l-55.4 44.98c-13.92,-13.92 -29.45,-25.17 -46.58,-33.73 -17.13,-8.57 -35.87,-12.85 -56.21,-12.85 -19.27,0 -37.48,4.01 -54.6,12.04 -17.13,8.04 -32.12,18.74 -44.97,32.13 -12.85,13.38 -22.89,29.04 -30.12,46.98 -7.23,17.94 -10.84,36.81 -10.84,56.61zm28.91 370.19c16.6,-9.64 31.46,-19.28 44.57,-28.91 13.12,-9.64 23.56,-20.75 31.32,-33.33 7.77,-12.58 12.18,-27.44 13.25,-44.58 1.08,-17.13 -1.87,-38.28 -8.83,-63.43l63.44 0c8.56,27.31 10.7,52.46 6.42,75.48 -4.28,23.02 -12.31,43.64 -24.09,61.83 -11.78,18.2 -25.97,33.86 -42.57,46.98 -16.59,13.12 -33.19,23.16 -49.78,30.12l-33.73 -44.17zm371 -370.19c0,19.81 3.61,38.81 10.84,57.01 7.23,18.2 17,34.13 29.31,47.77 12.32,13.66 26.91,24.5 43.77,32.53 16.87,8.03 34.94,12.04 54.2,12.04 18.74,0 36.27,-4.01 52.59,-12.04 16.33,-8.03 30.52,-18.87 42.57,-32.53 12.04,-13.65 21.68,-29.58 28.91,-47.77 7.23,-18.21 10.84,-37.21 10.84,-57.01 0,-19.81 -3.61,-38.55 -10.84,-56.21 -7.23,-17.67 -16.87,-33.33 -28.91,-46.98 -12.05,-13.65 -26.24,-24.49 -42.57,-32.53 -16.33,-8.03 -33.86,-12.04 -52.59,-12.04 -19.27,0 -37.34,4.01 -54.2,12.04 -16.86,8.04 -31.45,18.88 -43.77,32.53 -12.31,13.65 -22.08,29.31 -29.31,46.98 -7.23,17.67 -10.84,36.41 -10.84,56.21zm-76.29 0.8c0,-29.98 5.36,-58.08 16.06,-84.31 10.71,-26.24 25.3,-49.25 43.77,-69.06 18.47,-19.81 40.16,-35.34 65.04,-46.58 24.9,-11.24 51.53,-16.87 79.9,-16.87 28.38,0 54.87,5.63 79.5,16.87 24.63,11.24 46.31,26.77 65.04,46.58l0 -48.98 76.29 0 0 401.51 -76.29 0 0 -45.78c-18.74,19.81 -40.42,35.34 -65.04,46.58 -24.63,11.25 -51.12,16.87 -79.5,16.87 -28.37,0 -55,-5.62 -79.9,-16.87 -24.89,-11.24 -46.58,-26.77 -65.04,-46.58 -18.47,-19.81 -33.06,-42.83 -43.77,-69.05 -10.7,-26.24 -16.06,-54.34 -16.06,-84.32zm554.08 -0.8c0,19.81 3.61,38.81 10.84,57.01 7.23,18.2 17,34.13 29.31,47.77 12.32,13.66 26.91,24.5 43.77,32.53 16.87,8.03 34.94,12.04 54.2,12.04 18.74,0 36.27,-4.01 52.59,-12.04 16.33,-8.03 30.52,-18.87 42.57,-32.53 12.04,-13.65 21.68,-29.58 28.91,-47.77 7.23,-18.21 10.84,-37.21 10.84,-57.01 0,-19.81 -3.61,-38.55 -10.84,-56.21 -7.23,-17.67 -16.87,-33.33 -28.91,-46.98 -12.05,-13.65 -26.24,-24.49 -42.57,-32.53 -16.33,-8.03 -33.86,-12.04 -52.59,-12.04 -19.27,0 -37.34,4.01 -54.2,12.04 -16.86,8.04 -31.45,18.88 -43.77,32.53 -12.31,13.65 -22.08,29.31 -29.31,46.98 -7.23,17.67 -10.84,36.41 -10.84,56.21zm-76.29 0.8c0,-29.98 5.36,-58.08 16.06,-84.31 10.71,-26.24 25.3,-49.25 43.77,-69.06 18.47,-19.81 40.16,-35.34 65.04,-46.58 24.9,-11.24 51.53,-16.87 79.9,-16.87 28.38,0 54.87,5.63 79.5,16.87 24.63,11.24 46.31,26.77 65.04,46.58l0 -210.39 76.29 0 0 562.91 -76.29 0 0 -45.78c-18.74,19.81 -40.42,35.34 -65.04,46.58 -24.63,11.25 -51.12,16.87 -79.5,16.87 -28.37,0 -55,-5.62 -79.9,-16.87 -24.89,-11.24 -46.58,-26.77 -65.04,-46.58 -18.47,-19.81 -33.06,-42.83 -43.77,-69.05 -10.7,-26.24 -16.06,-54.34 -16.06,-84.32zm554.08 -0.8c0,19.81 3.61,38.81 10.84,57.01 7.23,18.2 17,34.13 29.31,47.77 12.32,13.66 26.91,24.5 43.77,32.53 16.87,8.03 34.94,12.04 54.2,12.04 18.74,0 36.27,-4.01 52.59,-12.04 16.33,-8.03 30.52,-18.87 42.57,-32.53 12.04,-13.65 21.68,-29.58 28.91,-47.77 7.23,-18.21 10.84,-37.21 10.84,-57.01 0,-19.81 -3.61,-38.55 -10.84,-56.21 -7.23,-17.67 -16.87,-33.33 -28.91,-46.98 -12.05,-13.65 -26.24,-24.49 -42.57,-32.53 -16.33,-8.03 -33.86,-12.04 -52.59,-12.04 -19.27,0 -37.34,4.01 -54.2,12.04 -16.86,8.04 -31.45,18.88 -43.77,32.53 -12.31,13.65 -22.08,29.31 -29.31,46.98 -7.23,17.67 -10.84,36.41 -10.84,56.21zm-76.29 0.8c0,-29.98 5.36,-58.08 16.06,-84.31 10.71,-26.24 25.3,-49.25 43.77,-69.06 18.47,-19.81 40.16,-35.34 65.04,-46.58 24.9,-11.24 51.53,-16.87 79.9,-16.87 28.38,0 54.87,5.63 79.5,16.87 24.63,11.24 46.31,26.77 65.04,46.58l0 -48.98 76.29 0 0 401.51 -76.29 0 0 -45.78c-18.74,19.81 -40.42,35.34 -65.04,46.58 -24.63,11.25 -51.12,16.87 -79.5,16.87 -28.37,0 -55,-5.62 -79.9,-16.87 -24.89,-11.24 -46.58,-26.77 -65.04,-46.58 -18.47,-19.81 -33.06,-42.83 -43.77,-69.05 -10.7,-26.24 -16.06,-54.34 -16.06,-84.32zm305.69 -3652.52c8.22,-51.31 12.01,-102.12 11.56,-152.21 -1.8,-202.71 -71.98,-391.2 -191.1,-553.14 -625.19,-849.68 -2479.81,-684.55 -2374.97,512.67 -125.89,38.42 -238.51,51.32 -425.6,2.19l0 -926.92c0,-69.63 -34.82,-112.48 -107.12,-99.09l-149.96 26.79c-64.27,16.06 -99.08,42.85 -99.08,104.44l0 535.58c-109.8,-80.34 -246.37,-131.23 -399.01,-131.23 -393.66,0 -672.16,307.97 -672.16,704.3 0,393.66 278.5,704.3 672.16,704.3 195.48,0 350.8,-85.7 460.6,-208.88 32.13,133.9 133.9,208.88 267.79,208.88 56.23,0 133.9,-10.72 203.52,-50.88 37.49,-21.42 58.91,-48.2 34.82,-112.47l-29.46 -93.73c-16.07,-48.2 -42.86,-69.62 -83.02,-58.91 -24.1,2.68 -42.85,13.39 -64.27,13.39 -29.46,0 -34.81,-21.43 -34.81,-50.88l0 -345.9c150.38,31.33 329.46,23.25 487.24,-24.96 329,447.96 809.69,648.23 1349.57,492.99 -28.81,466.27 497,544.9 998.25,-35.08 182.64,36.58 373.81,52.43 613.17,-91.67 58.86,-38 127.94,-92.23 207.23,-162.72 180.63,-177.92 -26.07,-290.22 -133.69,-186.9l-0.04 0c-168.75,180.17 -384.5,254.75 -619.43,207.39 27.14,-49.5 57.79,-130.63 77.26,-224.65 0.17,-0.89 0.35,-1.78 0.55,-2.67zm-5871.14 564.31l-29.46 -93.73c-16.07,-48.2 -42.86,-69.62 -83.02,-58.91 -24.1,2.68 -42.85,13.39 -64.27,13.39 -29.46,0 -34.81,-21.43 -34.81,-50.88l0 -931.91c0,-64.27 -37.5,-101.76 -101.76,-101.76l-155.32 0c-64.27,0 -99.08,37.49 -99.08,101.76l0 685.55c0,176.74 -107.12,291.89 -275.83,291.89 -163.35,0 -265.11,-115.15 -265.11,-283.86l0 -693.58c0,-64.27 -37.49,-101.76 -101.76,-101.76l-155.32 0c-64.26,0 -99.08,37.49 -99.08,101.76l0 733.75c0,329.39 216.91,551.65 543.61,551.65 198.17,0 329.39,-88.37 407.05,-219.6 32.14,141.94 136.58,219.6 275.83,219.6 56.23,0 133.9,-10.72 203.52,-50.88 37.49,-21.42 58.91,-48.2 34.82,-112.47zm840.3 -1245.24c-200.84,0 -342.77,91.05 -433.82,222.27 -29.46,-157.99 -149.96,-222.27 -286.53,-222.27 -56.24,0 -131.23,13.39 -187.46,45.53 -45.53,24.11 -56.23,58.91 -37.49,115.16l24.1 112.47c18.75,56.23 48.2,69.62 77.66,58.91 24.1,-2.68 53.55,-18.75 77.66,-18.75 21.42,0 34.81,13.39 34.81,42.85l0 913.17c0,64.27 34.82,104.44 99.09,104.44l155.31 0c64.27,0 101.76,-40.17 101.76,-104.44l0 -669.48c0,-179.42 120.51,-294.57 289.22,-294.57 179.42,0 283.86,120.51 283.86,294.57l0 669.48c0,64.27 34.82,104.44 99.08,104.44l155.32 0c64.26,0 101.76,-40.17 101.76,-104.44l0 -696.26c0,-337.42 -219.59,-573.08 -554.33,-573.08zm1349.12 1097.95c-224.95,0 -372.23,-174.07 -372.23,-393.66 0,-219.59 147.28,-396.33 372.23,-396.33 200.84,0 366.87,141.93 366.87,396.33 0,249.04 -166.03,393.66 -366.87,393.66zm-4979.42 -2181.15c0,-8.59 3.09,-15.97 9.28,-22.16 6.18,-6.18 13.57,-9.27 22.15,-9.27 5.16,0 10.31,1.37 15.46,4.12 5.16,2.75 10.14,7.56 14.95,14.43l190.14 261.24 0 -275.67 51.52 0 0 333.38c0,8.59 -3.09,15.97 -9.28,22.16 -6.18,6.18 -13.57,9.27 -22.16,9.27 -5.49,0 -10.73,-1.37 -15.71,-4.12 -4.99,-2.75 -9.88,-7.56 -14.69,-14.43l-190.14 -261.24 0 275.67 -51.52 0 0 -333.38zm859.75 62.35c0,-18.56 3.78,-34.27 11.34,-47.16 7.56,-12.88 17.09,-23.19 28.6,-30.92 11.51,-7.73 24.22,-13.31 38.14,-16.74 13.91,-3.44 27.22,-5.16 39.94,-5.16 25.07,0 46.98,5.41 65.69,16.24 18.72,10.82 34.44,24.47 47.15,40.96l-40.19 26.8c-8.59,-9.96 -19.16,-18.72 -31.7,-26.28 -12.54,-7.56 -27.22,-11.34 -44.06,-11.34 -6.87,0 -14,0.78 -21.38,2.32 -7.39,1.55 -14.17,4.3 -20.36,8.25 -6.18,3.95 -11.34,9.1 -15.46,15.46 -4.12,6.35 -6.18,14.34 -6.18,23.96 0,8.59 1.8,16.06 5.41,22.42 3.61,6.35 8.93,12.19 15.97,17.52 7.05,5.32 15.81,10.39 26.29,15.2 10.47,4.81 22.41,9.79 35.81,14.94 9.28,3.44 19.76,7.56 31.44,12.37 11.68,4.81 22.67,11.43 32.98,19.84 10.3,8.42 18.98,18.9 26.02,31.44 7.04,12.54 10.57,28.25 10.57,47.15 0,19.58 -3.78,35.99 -11.34,49.2 -7.56,13.23 -17.27,23.88 -29.12,31.95 -11.85,8.08 -24.91,13.92 -39.16,17.53 -14.26,3.6 -28.09,5.41 -41.49,5.41 -13.74,0 -26.45,-1.64 -38.13,-4.9 -11.68,-3.26 -22.5,-7.73 -32.47,-13.4 -9.96,-5.67 -19.24,-12.37 -27.82,-20.1 -8.59,-7.73 -16.5,-16.23 -23.71,-25.5l37.62 -26.8c4.81,5.15 10.13,10.39 15.97,15.72 5.84,5.32 12.37,10.05 19.59,14.17 7.21,4.12 14.94,7.56 23.19,10.3 8.24,2.75 17,4.13 26.28,4.13 6.87,0 14.26,-0.86 22.16,-2.58 7.9,-1.72 15.37,-4.72 22.41,-9.02 7.05,-4.29 12.89,-9.96 17.53,-17 4.63,-7.05 6.95,-15.89 6.95,-26.54 0,-9.28 -1.97,-17.35 -5.92,-24.22 -3.95,-6.87 -9.37,-13.06 -16.24,-18.56 -6.87,-5.49 -15.11,-10.39 -24.73,-14.68 -9.62,-4.3 -20.1,-8.68 -31.44,-13.14 -10.99,-4.13 -22.76,-8.85 -35.3,-14.18 -12.54,-5.32 -24.05,-12.02 -34.52,-20.09 -10.48,-8.08 -19.16,-18.13 -26.03,-30.15 -6.87,-12.02 -10.31,-26.97 -10.31,-44.83zm772.17 -89.66l252.48 0 0 46.38 -100.48 0 0 314.32 -51.52 0 0 -314.32 -100.48 0 0 -46.38zm855.62 0l0 360.69 -51.52 0 0 -360.69 51.52 0zm551.62 0l252.48 0 0 46.38 -100.48 0 0 314.32 -51.52 0 0 -314.32 -100.48 0 0 -46.38zm798.95 0l51.52 0 0 224.66c0,16.49 2.75,30.92 8.24,43.29 5.5,12.37 12.72,22.76 21.65,31.18 8.93,8.42 19.07,14.68 30.4,18.81 11.34,4.12 23.02,6.18 35.05,6.18 11.68,0 23.1,-2.06 34.27,-6.18 11.16,-4.13 21.12,-10.31 29.88,-18.55 8.76,-8.25 15.89,-18.64 21.39,-31.18 5.5,-12.54 8.25,-27.06 8.25,-43.55l0 -224.66 51.52 0 0 216.93c0,25.77 -4.21,48.26 -12.63,67.5 -8.41,19.24 -19.41,35.3 -32.98,48.17 -13.57,12.89 -29.11,22.51 -46.64,28.86 -17.52,6.36 -35.38,9.54 -53.58,9.54 -18.21,0 -36.07,-3.18 -53.58,-9.54 -17.53,-6.35 -33.16,-15.97 -46.9,-28.86 -13.74,-12.88 -24.82,-28.94 -33.24,-48.17 -8.41,-19.24 -12.62,-41.74 -12.62,-67.5l0 -216.93zm838.63 0l252.48 0 0 46.38 -100.48 0 0 314.32 -51.52 0 0 -314.32 -100.48 0 0 -46.38zm791.22 179.83c0,-26.11 4.81,-50.66 14.43,-73.68 9.62,-23.02 22.84,-43.2 39.68,-60.54 16.83,-17.35 36.41,-31.01 58.73,-40.97 22.33,-9.97 46.21,-14.95 71.62,-14.95 25.43,0 49.38,4.98 71.88,14.95 22.51,9.96 42.17,23.62 59,40.97 16.83,17.35 30.06,37.53 39.68,60.54 9.62,23.02 14.43,47.57 14.43,73.68 0,26.11 -4.81,50.84 -14.43,74.2 -9.62,23.36 -22.85,43.63 -39.68,60.8 -16.84,17.17 -36.5,30.83 -59,40.96 -22.5,10.14 -46.46,15.21 -71.88,15.21 -25.42,0 -49.29,-5.07 -71.62,-15.21 -22.33,-10.13 -41.91,-23.79 -58.73,-40.96 -16.84,-17.18 -30.06,-37.45 -39.68,-60.8 -9.62,-23.36 -14.43,-48.09 -14.43,-74.2zm51.52 0c0,19.93 3.52,38.65 10.56,56.16 7.05,17.52 16.58,32.81 28.6,45.86 12.03,13.06 26.11,23.37 42.26,30.92 16.15,7.56 33.33,11.34 51.52,11.34 18.56,0 35.91,-3.78 52.04,-11.34 16.15,-7.55 30.24,-17.86 42.26,-30.92 12.02,-13.05 21.56,-28.34 28.6,-45.86 7.04,-17.52 10.57,-36.24 10.57,-56.16 0,-19.93 -3.53,-38.56 -10.57,-55.9 -7.04,-17.35 -16.58,-32.56 -28.6,-45.61 -12.02,-13.06 -26.11,-23.36 -42.26,-30.92 -16.14,-7.56 -33.49,-11.34 -52.04,-11.34 -18.2,0 -35.38,3.78 -51.52,11.34 -16.15,7.56 -30.23,17.86 -42.26,30.92 -12.02,13.05 -21.55,28.26 -28.6,45.61 -7.04,17.35 -10.56,35.98 -10.56,55.9z"/>
   <path class="fil1" d="M8865.33 2334.26c43.06,-41.89 81.57,-83.82 115.84,-125.67l-20 -2.28c-197.59,-22.47 -387.16,-44.04 -447.83,42.27l-4.2 6.66c-27.98,40.88 -28.5,97.14 -8.02,144.58l-0.36 0.15c9.11,21.05 22.84,40.01 40.48,54.44 15.79,12.93 35.15,21.86 57.38,24.61 64.23,7.94 153.48,-28.7 264.6,-142.65l2.11 -2.11z"/>
   <path class="fil2" d="M7685.23 1532.77c-85.43,38.38 -289.96,129.41 -520.36,196.05 54.26,68.86 128.07,138.35 223.86,207.19l1.18 0.75c207.09,135.42 411.73,202.92 610.73,195.53 190.69,-7.1 380.57,-83.42 567.2,-235.16l3.22 -2.71c51.35,-41.44 90.4,-85.96 117.78,-131.15 35.36,-58.38 51.61,-118.19 50.05,-173.65 -1.46,-51.74 -19.04,-100.44 -51.5,-140.68 -16.85,-20.88 -37.66,-39.63 -62.18,-55.42 -134.21,-68.35 -305.68,-61.43 -471.66,-25.29 -178,38.77 -348.87,110.88 -468.31,164.53zm-4323.63 2868.79l-27.63 -87.9c-15.07,-45.21 -40.19,-65.29 -77.85,-55.24 -22.61,2.51 -40.19,12.56 -60.27,12.56 -27.63,0 -32.65,-20.1 -32.65,-47.72l0 -1398.84c0,-65.29 -32.65,-105.47 -100.46,-92.92l-140.64 25.12c-60.27,15.07 -92.92,40.19 -92.92,97.94l0 502.28c-102.97,-75.34 -231.05,-123.06 -374.2,-123.06 -369.17,0 -630.35,288.81 -630.35,660.5 0,369.17 261.18,660.49 630.35,660.49 183.33,0 329,-80.36 431.96,-195.89 30.14,125.58 125.57,195.89 251.13,195.89 52.74,0 125.57,-10.05 190.87,-47.71 35.16,-20.09 55.24,-45.21 32.65,-105.48zm-856.39 -138.13c-210.95,0 -349.07,-163.24 -349.07,-369.17 0,-205.94 138.13,-371.69 349.07,-371.69 188.36,0 344.06,133.11 344.06,371.69 0,233.56 -155.7,369.17 -344.06,369.17zm1232.99 -293.83l868.94 0c75.34,0 102.97,-32.65 102.97,-102.97 0,-175.8 -65.29,-341.55 -183.33,-457.07 -107.99,-107.99 -268.71,-175.8 -459.58,-175.8 -379.22,0 -657.98,281.28 -657.98,660.5 0,401.82 306.39,660.49 683.1,660.49 178.3,0 401.82,-60.27 529.89,-190.86 27.63,-30.14 47.72,-67.81 0,-115.53l-60.26 -60.27c-40.19,-42.7 -75.34,-35.16 -120.55,0 -110.51,85.39 -221.01,113.01 -318.95,113.01 -193.38,0 -364.15,-118.03 -384.25,-331.5zm323.98 -489.72c95.43,0 175.79,32.65 231.05,92.92 47.71,47.71 77.85,113.01 90.41,190.86l-642.91 0c25.11,-173.28 148.16,-283.78 321.46,-283.78zm1589.6 -246.12c-188.35,0 -321.46,85.39 -406.85,208.45 -27.62,-148.17 -140.64,-208.45 -268.71,-208.45 -52.74,0 -123.06,12.56 -175.8,42.7 -42.7,22.61 -52.73,55.25 -35.16,107.99l22.6 105.48c17.59,52.74 45.21,65.29 72.83,55.25 22.61,-2.51 50.23,-17.58 72.83,-17.58 20.09,0 32.65,12.55 32.65,40.18l0 856.39c0,60.27 32.65,97.94 92.92,97.94l145.66 0c60.27,0 95.43,-37.67 95.43,-97.94l0 -627.85c0,-168.26 113.02,-276.25 271.23,-276.25 168.26,0 266.2,113.02 266.2,276.25l0 627.85c0,60.27 32.66,97.94 92.93,97.94l145.65 0c60.27,0 95.43,-37.67 95.43,-97.94l0 -652.96c0,-316.44 -205.93,-537.44 -519.86,-537.44zm1594.62 1132.64l-45.21 -105.48c-22.6,-42.7 -50.22,-67.81 -107.99,-32.65 -35.16,20.09 -72.83,37.67 -115.52,37.67 -97.95,0 -165.75,-52.73 -165.75,-193.38l0 -567.57 278.76 0c60.27,0 97.94,-35.16 97.94,-95.43l0 -62.78c0,-60.27 -37.67,-92.92 -97.94,-92.92l-278.76 0 0 -346.57c0,-65.29 -32.66,-110.5 -100.46,-95.43l-135.62 27.62c-62.78,12.56 -95.43,40.19 -95.43,97.95l0 316.44 -123.06 0c-60.27,0 -97.95,32.65 -97.95,92.92l0 62.78c0,60.27 37.68,95.43 97.95,95.43l123.06 0 0 597.71c0,311.42 203.42,452.05 442,452.05 110.5,0 210.96,-30.14 281.27,-80.36 32.66,-22.61 70.32,-55.25 42.7,-107.99zm966.78 -1110.03c-50.22,-15.07 -97.94,-22.61 -158.21,-22.61 -158.21,0 -273.74,70.32 -349.08,185.85 -35.16,-130.6 -143.14,-185.85 -263.69,-185.85 -52.74,0 -123.06,12.56 -175.8,42.7 -42.7,22.61 -52.73,55.25 -35.16,107.99l22.6 105.48c17.59,52.74 45.21,65.29 72.83,55.25 22.61,-2.51 50.23,-17.58 72.83,-17.58 20.09,0 32.65,12.55 32.65,40.18l0 856.39c0,60.27 32.65,97.94 92.92,97.94l145.66 0c60.27,0 95.43,-37.67 95.43,-97.94l0 -597.72c0,-180.82 92.92,-306.39 256.16,-306.39 37.67,0 77.85,7.54 113.01,20.09 40.19,12.56 80.37,5.03 97.95,-57.75l32.65 -125.58c20.09,-67.8 -15.07,-87.89 -52.74,-100.45zm715.64 1298.38c396.8,0 685.61,-283.78 685.61,-660.49 0,-376.71 -288.81,-660.5 -685.61,-660.5 -396.8,0 -688.12,283.79 -688.12,660.5 0,376.71 291.32,660.49 688.12,660.49zm0 -291.32c-208.45,0 -356.62,-155.7 -356.62,-369.17 0,-213.47 150.68,-371.69 356.62,-371.69 205.93,0 354.1,158.22 354.1,371.69 0,213.47 -148.17,369.17 -354.1,369.17z"/>
   <path class="fil3" d="M7060.89 1535.1c232.71,-62.64 450.1,-159.41 536.84,-198.39 129.25,-58.06 314.48,-136.16 510.38,-178.82 207.95,-45.29 428.42,-51.07 614.64,43.77 5.65,2.87 10.93,6.18 15.83,9.85 45.98,29.14 84.84,63.89 116.27,102.82 62.17,77.02 95.81,170.25 98.61,269.41 2.7,95.4 -23.68,195.63 -81.19,290.6 -20.73,34.21 -45.43,67.7 -74.2,99.95 103.17,-3.28 208.63,12.34 316.88,32.12 62.15,-122.22 89.82,-241.76 88.83,-355.19 -1.36,-154.79 -56.38,-300.74 -149.84,-427.78 -95.94,-130.37 -232.62,-240.94 -394.19,-321.48 -309.88,-154.44 -707.61,-196.5 -1084.34,-56.1 -274.67,102.38 -541.24,299.6 -514.51,689.26zm-6243.17 2600.28l-14.7 -46.77c-8.01,-24.05 -21.38,-34.74 -41.42,-29.4 -12.03,1.34 -21.38,6.68 -32.07,6.68 -14.7,0 -17.37,-10.69 -17.37,-25.39l0 -744.23c0,-34.74 -17.37,-56.11 -53.44,-49.43l-74.83 13.37c-32.07,8.01 -49.43,21.38 -49.43,52.1l0 267.23c-54.78,-40.09 -122.93,-65.47 -199.08,-65.47 -196.42,0 -335.37,153.65 -335.37,351.4 0,196.41 138.96,351.4 335.37,351.4 97.53,0 175.03,-42.76 229.82,-104.22 16.03,66.81 66.8,104.22 133.61,104.22 28.07,0 66.81,-5.34 101.55,-25.39 18.71,-10.69 29.4,-24.05 17.37,-56.11zm-455.62 -73.49c-112.24,0 -185.72,-86.85 -185.72,-196.41 0,-109.56 73.48,-197.75 185.72,-197.75 100.21,0 183.05,70.81 183.05,197.75 0,124.26 -82.84,196.41 -183.05,196.41zm693.46 -156.32l462.31 0c40.08,0 54.77,-17.37 54.77,-54.78 0,-93.53 -34.74,-181.71 -97.54,-243.17 -57.45,-57.45 -142.96,-93.53 -244.5,-93.53 -201.76,0 -350.07,149.64 -350.07,351.4 0,213.78 163.01,351.4 363.43,351.4 94.86,0 213.78,-32.07 281.92,-101.55 14.7,-16.03 25.39,-36.08 0,-61.45l-32.07 -32.08c-21.38,-22.71 -40.09,-18.7 -64.13,0 -58.79,45.44 -117.58,60.13 -169.69,60.13 -102.88,0 -193.74,-62.8 -204.43,-176.37zm172.36 -260.55c50.77,0 93.53,17.38 122.93,49.44 25.39,25.39 41.43,60.12 48.1,101.54l-342.05 0c13.36,-92.19 78.83,-150.98 171.02,-150.98z"/>
  </g>
 </g>
</svg>
